<svg width="769" height="977" viewBox="0 0 769 977" fill="none" xmlns="http://www.w3.org/2000/svg">
<g clip-path="url(#clip0_6755_24220)">
<path d="M769 799.278V579.356C662.638 579.935 618.715 654.34 576.266 726.32C533.98 798.012 490.256 872.145 384.5 872.145C278.744 872.145 235.02 798.012 192.734 726.32C150.276 654.34 106.362 579.944 0 579.356V799.278L5.32535 805.339C101.163 914.454 239.315 977 384.5 977C529.685 977 667.837 914.454 763.675 805.339L769 799.278Z" fill="url(#paint0_linear_6755_24220)"/>
<path d="M192.734 571.06C235.02 642.751 278.735 716.885 384.5 716.885C490.265 716.885 533.98 642.751 576.266 571.06C618.724 499.079 662.638 424.683 769 424.095V279.835C664.157 280.423 620.596 354.222 578.472 425.633C535.852 497.894 491.775 572.625 384.5 572.625C277.216 572.625 233.148 497.894 190.528 425.633C148.413 354.232 104.852 280.423 0.00878906 279.835V424.095C106.362 424.683 150.285 499.079 192.734 571.06Z" fill="url(#paint1_linear_6755_24220)"/>
<path d="M192.734 291.234C235.02 362.925 278.735 437.059 384.5 437.059C490.265 437.059 533.98 362.925 576.266 291.234C618.724 219.253 662.638 144.857 769 144.269V0.0904621C769 0.0452311 768.964 0 768.91 0C529.36 1.33884 239.541 1.33884 0 0V144.269C106.362 144.857 150.285 219.262 192.734 291.234Z" fill="url(#paint2_linear_6755_24220)"/>
</g>
<defs>
<linearGradient id="paint0_linear_6755_24220" x1="1.53607e-05" y1="572.859" x2="204.788" y2="1126" gradientUnits="userSpaceOnUse">
<stop stop-color="#4EFFEA"/>
<stop offset="0.5" stop-color="#4EA4FF"/>
<stop offset="1" stop-color="#6C4EFF"/>
</linearGradient>
<linearGradient id="paint1_linear_6755_24220" x1="0.00880442" y1="272.694" x2="241.347" y2="865.773" gradientUnits="userSpaceOnUse">
<stop stop-color="#4EFFEA"/>
<stop offset="0.5" stop-color="#4EA4FF"/>
<stop offset="1" stop-color="#6C4EFF"/>
</linearGradient>
<linearGradient id="paint2_linear_6755_24220" x1="1.53607e-05" y1="-7.14147" x2="241.345" y2="585.948" gradientUnits="userSpaceOnUse">
<stop stop-color="#4EFFEA"/>
<stop offset="0.5" stop-color="#4EA4FF"/>
<stop offset="1" stop-color="#6C4EFF"/>
</linearGradient>
<clipPath id="clip0_6755_24220">
<rect width="769" height="977" fill="white"/>
</clipPath>
</defs>
</svg>
